<?xml version="1.0" encoding="utf-8" standalone="no"?>
<!DOCTYPE svg PUBLIC "-//W3C//DTD SVG 1.1//EN"
  "http://www.w3.org/Graphics/SVG/1.1/DTD/svg11.dtd">
<!-- Created with matplotlib (https://matplotlib.org/) -->
<svg height="316.675125pt" version="1.1" viewBox="0 0 415.605 316.675125" width="415.605pt" xmlns="http://www.w3.org/2000/svg" xmlns:xlink="http://www.w3.org/1999/xlink">
 <defs>
  <style type="text/css">
*{stroke-linecap:butt;stroke-linejoin:round;}
  </style>
 </defs>
 <g id="figure_1">
  <g id="patch_1">
   <path d="M 0 316.675125 
L 415.605 316.675125 
L 415.605 0 
L 0 0 
z
" style="fill:#ffffff;"/>
  </g>
  <g id="axes_1">
   <g id="patch_2">
    <path d="M 51.285 273.312 
L 408.405 273.312 
L 408.405 7.2 
L 51.285 7.2 
z
" style="fill:#ffffff;"/>
   </g>
   <g id="PathCollection_1">
    <defs>
     <path d="M 0 1.5 
C 0.397805 1.5 0.77937 1.341951 1.06066 1.06066 
C 1.341951 0.77937 1.5 0.397805 1.5 0 
C 1.5 -0.397805 1.341951 -0.77937 1.06066 -1.06066 
C 0.77937 -1.341951 0.397805 -1.5 0 -1.5 
C -0.397805 -1.5 -0.77937 -1.341951 -1.06066 -1.06066 
C -1.341951 -0.77937 -1.5 -0.397805 -1.5 0 
C -1.5 0.397805 -1.341951 0.77937 -1.06066 1.06066 
C -0.77937 1.341951 -0.397805 1.5 0 1.5 
z
" id="m7134a1407c" style="stroke:#000000;"/>
    </defs>
    <g clip-path="url(#p06f8e9a0c0)">
     <use style="stroke:#000000;" x="68.381381" xlink:href="#m7134a1407c" y="19.296691"/>
     <use style="stroke:#000000;" x="71.651996" xlink:href="#m7134a1407c" y="23.218361"/>
     <use style="stroke:#000000;" x="74.922611" xlink:href="#m7134a1407c" y="27.19983"/>
     <use style="stroke:#000000;" x="78.193226" xlink:href="#m7134a1407c" y="31.236924"/>
     <use style="stroke:#000000;" x="81.463841" xlink:href="#m7134a1407c" y="35.325852"/>
     <use style="stroke:#000000;" x="84.734456" xlink:href="#m7134a1407c" y="39.463151"/>
     <use style="stroke:#000000;" x="88.005071" xlink:href="#m7134a1407c" y="43.645645"/>
     <use style="stroke:#000000;" x="91.275686" xlink:href="#m7134a1407c" y="47.870404"/>
     <use style="stroke:#000000;" x="94.546301" xlink:href="#m7134a1407c" y="52.134713"/>
     <use style="stroke:#000000;" x="97.816916" xlink:href="#m7134a1407c" y="56.436043"/>
     <use style="stroke:#000000;" x="101.087531" xlink:href="#m7134a1407c" y="60.772024"/>
     <use style="stroke:#000000;" x="104.358146" xlink:href="#m7134a1407c" y="65.140421"/>
     <use style="stroke:#000000;" x="107.628761" xlink:href="#m7134a1407c" y="69.539115"/>
     <use style="stroke:#000000;" x="110.899376" xlink:href="#m7134a1407c" y="73.966082"/>
     <use style="stroke:#000000;" x="114.169991" xlink:href="#m7134a1407c" y="78.419377"/>
     <use style="stroke:#000000;" x="117.440606" xlink:href="#m7134a1407c" y="82.897112"/>
     <use style="stroke:#000000;" x="120.711221" xlink:href="#m7134a1407c" y="87.397445"/>
     <use style="stroke:#000000;" x="123.981836" xlink:href="#m7134a1407c" y="91.918564"/>
     <use style="stroke:#000000;" x="127.252451" xlink:href="#m7134a1407c" y="96.458666"/>
     <use style="stroke:#000000;" x="130.523066" xlink:href="#m7134a1407c" y="101.015946"/>
     <use style="stroke:#000000;" x="133.793681" xlink:href="#m7134a1407c" y="105.58858"/>
     <use style="stroke:#000000;" x="137.064296" xlink:href="#m7134a1407c" y="110.17471"/>
     <use style="stroke:#000000;" x="140.334911" xlink:href="#m7134a1407c" y="114.772423"/>
     <use style="stroke:#000000;" x="143.605526" xlink:href="#m7134a1407c" y="119.379741"/>
     <use style="stroke:#000000;" x="146.876141" xlink:href="#m7134a1407c" y="123.994595"/>
     <use style="stroke:#000000;" x="150.146756" xlink:href="#m7134a1407c" y="128.614811"/>
     <use style="stroke:#000000;" x="153.417371" xlink:href="#m7134a1407c" y="133.238086"/>
     <use style="stroke:#000000;" x="156.687986" xlink:href="#m7134a1407c" y="137.861971"/>
     <use style="stroke:#000000;" x="159.958601" xlink:href="#m7134a1407c" y="142.483844"/>
     <use style="stroke:#000000;" x="163.229216" xlink:href="#m7134a1407c" y="147.100885"/>
     <use style="stroke:#000000;" x="166.499831" xlink:href="#m7134a1407c" y="151.710054"/>
     <use style="stroke:#000000;" x="169.770446" xlink:href="#m7134a1407c" y="156.308062"/>
     <use style="stroke:#000000;" x="173.041061" xlink:href="#m7134a1407c" y="160.891341"/>
     <use style="stroke:#000000;" x="176.311676" xlink:href="#m7134a1407c" y="165.456016"/>
     <use style="stroke:#000000;" x="179.582291" xlink:href="#m7134a1407c" y="169.997872"/>
     <use style="stroke:#000000;" x="182.852905" xlink:href="#m7134a1407c" y="174.512327"/>
     <use style="stroke:#000000;" x="186.12352" xlink:href="#m7134a1407c" y="178.994395"/>
     <use style="stroke:#000000;" x="189.394135" xlink:href="#m7134a1407c" y="183.438663"/>
     <use style="stroke:#000000;" x="192.66475" xlink:href="#m7134a1407c" y="187.839256"/>
     <use style="stroke:#000000;" x="195.935365" xlink:href="#m7134a1407c" y="192.189815"/>
     <use style="stroke:#000000;" x="199.20598" xlink:href="#m7134a1407c" y="196.483476"/>
     <use style="stroke:#000000;" x="202.476595" xlink:href="#m7134a1407c" y="200.712856"/>
     <use style="stroke:#000000;" x="205.74721" xlink:href="#m7134a1407c" y="204.870045"/>
     <use style="stroke:#000000;" x="209.017825" xlink:href="#m7134a1407c" y="208.946616"/>
     <use style="stroke:#000000;" x="212.28844" xlink:href="#m7134a1407c" y="212.933643"/>
     <use style="stroke:#000000;" x="215.559055" xlink:href="#m7134a1407c" y="216.821735"/>
     <use style="stroke:#000000;" x="218.82967" xlink:href="#m7134a1407c" y="220.601097"/>
     <use style="stroke:#000000;" x="222.100285" xlink:href="#m7134a1407c" y="224.26161"/>
     <use style="stroke:#000000;" x="225.3709" xlink:href="#m7134a1407c" y="227.792931"/>
     <use style="stroke:#000000;" x="228.641515" xlink:href="#m7134a1407c" y="231.184633"/>
     <use style="stroke:#000000;" x="231.91213" xlink:href="#m7134a1407c" y="234.426364"/>
     <use style="stroke:#000000;" x="235.182745" xlink:href="#m7134a1407c" y="237.508035"/>
     <use style="stroke:#000000;" x="238.45336" xlink:href="#m7134a1407c" y="240.420031"/>
     <use style="stroke:#000000;" x="241.723975" xlink:href="#m7134a1407c" y="243.153449"/>
     <use style="stroke:#000000;" x="244.99459" xlink:href="#m7134a1407c" y="245.700338"/>
     <use style="stroke:#000000;" x="248.265205" xlink:href="#m7134a1407c" y="248.05395"/>
     <use style="stroke:#000000;" x="251.53582" xlink:href="#m7134a1407c" y="250.208969"/>
     <use style="stroke:#000000;" x="254.806435" xlink:href="#m7134a1407c" y="252.161729"/>
     <use style="stroke:#000000;" x="258.07705" xlink:href="#m7134a1407c" y="253.910386"/>
     <use style="stroke:#000000;" x="261.347665" xlink:href="#m7134a1407c" y="255.455041"/>
     <use style="stroke:#000000;" x="264.61828" xlink:href="#m7134a1407c" y="256.797799"/>
     <use style="stroke:#000000;" x="267.888895" xlink:href="#m7134a1407c" y="257.942768"/>
     <use style="stroke:#000000;" x="271.15951" xlink:href="#m7134a1407c" y="258.895969"/>
     <use style="stroke:#000000;" x="274.430125" xlink:href="#m7134a1407c" y="259.665196"/>
     <use style="stroke:#000000;" x="277.70074" xlink:href="#m7134a1407c" y="260.259803"/>
     <use style="stroke:#000000;" x="280.971355" xlink:href="#m7134a1407c" y="260.690444"/>
     <use style="stroke:#000000;" x="284.24197" xlink:href="#m7134a1407c" y="260.968777"/>
     <use style="stroke:#000000;" x="287.512585" xlink:href="#m7134a1407c" y="261.10716"/>
     <use style="stroke:#000000;" x="290.7832" xlink:href="#m7134a1407c" y="261.11833"/>
     <use style="stroke:#000000;" x="294.053815" xlink:href="#m7134a1407c" y="261.015117"/>
     <use style="stroke:#000000;" x="297.32443" xlink:href="#m7134a1407c" y="260.810168"/>
     <use style="stroke:#000000;" x="300.595045" xlink:href="#m7134a1407c" y="260.515726"/>
     <use style="stroke:#000000;" x="303.86566" xlink:href="#m7134a1407c" y="260.143436"/>
     <use style="stroke:#000000;" x="307.136275" xlink:href="#m7134a1407c" y="259.704208"/>
     <use style="stroke:#000000;" x="310.40689" xlink:href="#m7134a1407c" y="259.208123"/>
     <use style="stroke:#000000;" x="313.677505" xlink:href="#m7134a1407c" y="258.664374"/>
     <use style="stroke:#000000;" x="316.94812" xlink:href="#m7134a1407c" y="258.081247"/>
     <use style="stroke:#000000;" x="320.218735" xlink:href="#m7134a1407c" y="257.466136"/>
     <use style="stroke:#000000;" x="323.48935" xlink:href="#m7134a1407c" y="256.825571"/>
     <use style="stroke:#000000;" x="326.759965" xlink:href="#m7134a1407c" y="256.165269"/>
     <use style="stroke:#000000;" x="330.03058" xlink:href="#m7134a1407c" y="255.490199"/>
     <use style="stroke:#000000;" x="333.301195" xlink:href="#m7134a1407c" y="254.804647"/>
     <use style="stroke:#000000;" x="336.57181" xlink:href="#m7134a1407c" y="254.112285"/>
     <use style="stroke:#000000;" x="339.842425" xlink:href="#m7134a1407c" y="253.416242"/>
     <use style="stroke:#000000;" x="343.11304" xlink:href="#m7134a1407c" y="252.719172"/>
     <use style="stroke:#000000;" x="346.383654" xlink:href="#m7134a1407c" y="252.02331"/>
     <use style="stroke:#000000;" x="349.654269" xlink:href="#m7134a1407c" y="251.330537"/>
     <use style="stroke:#000000;" x="352.924884" xlink:href="#m7134a1407c" y="250.642421"/>
     <use style="stroke:#000000;" x="356.195499" xlink:href="#m7134a1407c" y="249.960266"/>
     <use style="stroke:#000000;" x="359.466114" xlink:href="#m7134a1407c" y="249.285153"/>
     <use style="stroke:#000000;" x="362.736729" xlink:href="#m7134a1407c" y="248.617964"/>
     <use style="stroke:#000000;" x="366.007344" xlink:href="#m7134a1407c" y="247.959421"/>
     <use style="stroke:#000000;" x="369.277959" xlink:href="#m7134a1407c" y="247.310099"/>
     <use style="stroke:#000000;" x="372.548574" xlink:href="#m7134a1407c" y="246.670452"/>
     <use style="stroke:#000000;" x="375.819189" xlink:href="#m7134a1407c" y="246.040825"/>
     <use style="stroke:#000000;" x="379.089804" xlink:href="#m7134a1407c" y="245.421468"/>
     <use style="stroke:#000000;" x="382.360419" xlink:href="#m7134a1407c" y="244.812549"/>
     <use style="stroke:#000000;" x="385.631034" xlink:href="#m7134a1407c" y="244.21416"/>
     <use style="stroke:#000000;" x="388.901649" xlink:href="#m7134a1407c" y="243.626324"/>
     <use style="stroke:#000000;" x="392.172264" xlink:href="#m7134a1407c" y="243.049005"/>
    </g>
   </g>
   <g id="matplotlib.axis_1">
    <g id="xtick_1">
     <g id="line2d_1">
      <defs>
       <path d="M 0 0 
L 0 3.5 
" id="m15ef5f0ace" style="stroke:#000000;stroke-width:0.8;"/>
      </defs>
      <g>
       <use style="stroke:#000000;stroke-width:0.8;" x="68.381381" xlink:href="#m15ef5f0ace" y="273.312"/>
      </g>
     </g>
     <g id="text_1">
      <!-- $\mathdefault{10^{-1}}$ -->
      <defs>
       <path d="M 12.40625 8.296875 
L 28.515625 8.296875 
L 28.515625 63.921875 
L 10.984375 60.40625 
L 10.984375 69.390625 
L 28.421875 72.90625 
L 38.28125 72.90625 
L 38.28125 8.296875 
L 54.390625 8.296875 
L 54.390625 0 
L 12.40625 0 
z
" id="DejaVuSans-49"/>
       <path d="M 31.78125 66.40625 
Q 24.171875 66.40625 20.328125 58.90625 
Q 16.5 51.421875 16.5 36.375 
Q 16.5 21.390625 20.328125 13.890625 
Q 24.171875 6.390625 31.78125 6.390625 
Q 39.453125 6.390625 43.28125 13.890625 
Q 47.125 21.390625 47.125 36.375 
Q 47.125 51.421875 43.28125 58.90625 
Q 39.453125 66.40625 31.78125 66.40625 
z
M 31.78125 74.21875 
Q 44.046875 74.21875 50.515625 64.515625 
Q 56.984375 54.828125 56.984375 36.375 
Q 56.984375 17.96875 50.515625 8.265625 
Q 44.046875 -1.421875 31.78125 -1.421875 
Q 19.53125 -1.421875 13.0625 8.265625 
Q 6.59375 17.96875 6.59375 36.375 
Q 6.59375 54.828125 13.0625 64.515625 
Q 19.53125 74.21875 31.78125 74.21875 
z
" id="DejaVuSans-48"/>
       <path d="M 10.59375 35.5 
L 73.1875 35.5 
L 73.1875 27.203125 
L 10.59375 27.203125 
z
" id="DejaVuSans-8722"/>
      </defs>
      <g transform="translate(56.631381 287.910437)scale(0.1 -0.1)">
       <use transform="translate(0 0.684375)" xlink:href="#DejaVuSans-49"/>
       <use transform="translate(63.623047 0.684375)" xlink:href="#DejaVuSans-48"/>
       <use transform="translate(128.203125 38.965625)scale(0.7)" xlink:href="#DejaVuSans-8722"/>
       <use transform="translate(186.855469 38.965625)scale(0.7)" xlink:href="#DejaVuSans-49"/>
      </g>
     </g>
    </g>
    <g id="xtick_2">
     <g id="line2d_2">
      <g>
       <use style="stroke:#000000;stroke-width:0.8;" x="133.139558" xlink:href="#m15ef5f0ace" y="273.312"/>
      </g>
     </g>
     <g id="text_2">
      <!-- $\mathdefault{10^{0}}$ -->
      <g transform="translate(124.339558 287.910437)scale(0.1 -0.1)">
       <use transform="translate(0 0.765625)" xlink:href="#DejaVuSans-49"/>
       <use transform="translate(63.623047 0.765625)" xlink:href="#DejaVuSans-48"/>
       <use transform="translate(128.203125 39.046875)scale(0.7)" xlink:href="#DejaVuSans-48"/>
      </g>
     </g>
    </g>
    <g id="xtick_3">
     <g id="line2d_3">
      <g>
       <use style="stroke:#000000;stroke-width:0.8;" x="197.897734" xlink:href="#m15ef5f0ace" y="273.312"/>
      </g>
     </g>
     <g id="text_3">
      <!-- $\mathdefault{10^{1}}$ -->
      <g transform="translate(189.097734 287.910437)scale(0.1 -0.1)">
       <use transform="translate(0 0.684375)" xlink:href="#DejaVuSans-49"/>
       <use transform="translate(63.623047 0.684375)" xlink:href="#DejaVuSans-48"/>
       <use transform="translate(128.203125 38.965625)scale(0.7)" xlink:href="#DejaVuSans-49"/>
      </g>
     </g>
    </g>
    <g id="xtick_4">
     <g id="line2d_4">
      <g>
       <use style="stroke:#000000;stroke-width:0.8;" x="262.655911" xlink:href="#m15ef5f0ace" y="273.312"/>
      </g>
     </g>
     <g id="text_4">
      <!-- $\mathdefault{10^{2}}$ -->
      <defs>
       <path d="M 19.1875 8.296875 
L 53.609375 8.296875 
L 53.609375 0 
L 7.328125 0 
L 7.328125 8.296875 
Q 12.9375 14.109375 22.625 23.890625 
Q 32.328125 33.6875 34.8125 36.53125 
Q 39.546875 41.84375 41.421875 45.53125 
Q 43.3125 49.21875 43.3125 52.78125 
Q 43.3125 58.59375 39.234375 62.25 
Q 35.15625 65.921875 28.609375 65.921875 
Q 23.96875 65.921875 18.8125 64.3125 
Q 13.671875 62.703125 7.8125 59.421875 
L 7.8125 69.390625 
Q 13.765625 71.78125 18.9375 73 
Q 24.125 74.21875 28.421875 74.21875 
Q 39.75 74.21875 46.484375 68.546875 
Q 53.21875 62.890625 53.21875 53.421875 
Q 53.21875 48.921875 51.53125 44.890625 
Q 49.859375 40.875 45.40625 35.40625 
Q 44.1875 33.984375 37.640625 27.21875 
Q 31.109375 20.453125 19.1875 8.296875 
z
" id="DejaVuSans-50"/>
      </defs>
      <g transform="translate(253.855911 287.910437)scale(0.1 -0.1)">
       <use transform="translate(0 0.765625)" xlink:href="#DejaVuSans-49"/>
       <use transform="translate(63.623047 0.765625)" xlink:href="#DejaVuSans-48"/>
       <use transform="translate(128.203125 39.046875)scale(0.7)" xlink:href="#DejaVuSans-50"/>
      </g>
     </g>
    </g>
    <g id="xtick_5">
     <g id="line2d_5">
      <g>
       <use style="stroke:#000000;stroke-width:0.8;" x="327.414088" xlink:href="#m15ef5f0ace" y="273.312"/>
      </g>
     </g>
     <g id="text_5">
      <!-- $\mathdefault{10^{3}}$ -->
      <defs>
       <path d="M 40.578125 39.3125 
Q 47.65625 37.796875 51.625 33 
Q 55.609375 28.21875 55.609375 21.1875 
Q 55.609375 10.40625 48.1875 4.484375 
Q 40.765625 -1.421875 27.09375 -1.421875 
Q 22.515625 -1.421875 17.65625 -0.515625 
Q 12.796875 0.390625 7.625 2.203125 
L 7.625 11.71875 
Q 11.71875 9.328125 16.59375 8.109375 
Q 21.484375 6.890625 26.8125 6.890625 
Q 36.078125 6.890625 40.9375 10.546875 
Q 45.796875 14.203125 45.796875 21.1875 
Q 45.796875 27.640625 41.28125 31.265625 
Q 36.765625 34.90625 28.71875 34.90625 
L 20.21875 34.90625 
L 20.21875 43.015625 
L 29.109375 43.015625 
Q 36.375 43.015625 40.234375 45.921875 
Q 44.09375 48.828125 44.09375 54.296875 
Q 44.09375 59.90625 40.109375 62.90625 
Q 36.140625 65.921875 28.71875 65.921875 
Q 24.65625 65.921875 20.015625 65.03125 
Q 15.375 64.15625 9.8125 62.3125 
L 9.8125 71.09375 
Q 15.4375 72.65625 20.34375 73.4375 
Q 25.25 74.21875 29.59375 74.21875 
Q 40.828125 74.21875 47.359375 69.109375 
Q 53.90625 64.015625 53.90625 55.328125 
Q 53.90625 49.265625 50.4375 45.09375 
Q 46.96875 40.921875 40.578125 39.3125 
z
" id="DejaVuSans-51"/>
      </defs>
      <g transform="translate(318.614088 287.910437)scale(0.1 -0.1)">
       <use transform="translate(0 0.765625)" xlink:href="#DejaVuSans-49"/>
       <use transform="translate(63.623047 0.765625)" xlink:href="#DejaVuSans-48"/>
       <use transform="translate(128.203125 39.046875)scale(0.7)" xlink:href="#DejaVuSans-51"/>
      </g>
     </g>
    </g>
    <g id="xtick_6">
     <g id="line2d_6">
      <g>
       <use style="stroke:#000000;stroke-width:0.8;" x="392.172264" xlink:href="#m15ef5f0ace" y="273.312"/>
      </g>
     </g>
     <g id="text_6">
      <!-- $\mathdefault{10^{4}}$ -->
      <defs>
       <path d="M 37.796875 64.3125 
L 12.890625 25.390625 
L 37.796875 25.390625 
z
M 35.203125 72.90625 
L 47.609375 72.90625 
L 47.609375 25.390625 
L 58.015625 25.390625 
L 58.015625 17.1875 
L 47.609375 17.1875 
L 47.609375 0 
L 37.796875 0 
L 37.796875 17.1875 
L 4.890625 17.1875 
L 4.890625 26.703125 
z
" id="DejaVuSans-52"/>
      </defs>
      <g transform="translate(383.372264 287.910437)scale(0.1 -0.1)">
       <use transform="translate(0 0.684375)" xlink:href="#DejaVuSans-49"/>
       <use transform="translate(63.623047 0.684375)" xlink:href="#DejaVuSans-48"/>
       <use transform="translate(128.203125 38.965625)scale(0.7)" xlink:href="#DejaVuSans-52"/>
      </g>
     </g>
    </g>
    <g id="xtick_7">
     <g id="line2d_7">
      <defs>
       <path d="M 0 0 
L 0 2 
" id="meb959a2cd8" style="stroke:#000000;stroke-width:0.6;"/>
      </defs>
      <g>
       <use style="stroke:#000000;stroke-width:0.6;" x="54.014861" xlink:href="#meb959a2cd8" y="273.312"/>
      </g>
     </g>
    </g>
    <g id="xtick_8">
     <g id="line2d_8">
      <g>
       <use style="stroke:#000000;stroke-width:0.6;" x="58.350213" xlink:href="#meb959a2cd8" y="273.312"/>
      </g>
     </g>
    </g>
    <g id="xtick_9">
     <g id="line2d_9">
      <g>
       <use style="stroke:#000000;stroke-width:0.6;" x="62.105665" xlink:href="#meb959a2cd8" y="273.312"/>
      </g>
     </g>
    </g>
    <g id="xtick_10">
     <g id="line2d_10">
      <g>
       <use style="stroke:#000000;stroke-width:0.6;" x="65.41821" xlink:href="#meb959a2cd8" y="273.312"/>
      </g>
     </g>
    </g>
    <g id="xtick_11">
     <g id="line2d_11">
      <g>
       <use style="stroke:#000000;stroke-width:0.6;" x="87.875535" xlink:href="#meb959a2cd8" y="273.312"/>
      </g>
     </g>
    </g>
    <g id="xtick_12">
     <g id="line2d_12">
      <g>
       <use style="stroke:#000000;stroke-width:0.6;" x="99.278884" xlink:href="#meb959a2cd8" y="273.312"/>
      </g>
     </g>
    </g>
    <g id="xtick_13">
     <g id="line2d_13">
      <g>
       <use style="stroke:#000000;stroke-width:0.6;" x="107.369688" xlink:href="#meb959a2cd8" y="273.312"/>
      </g>
     </g>
    </g>
    <g id="xtick_14">
     <g id="line2d_14">
      <g>
       <use style="stroke:#000000;stroke-width:0.6;" x="113.645404" xlink:href="#meb959a2cd8" y="273.312"/>
      </g>
     </g>
    </g>
    <g id="xtick_15">
     <g id="line2d_15">
      <g>
       <use style="stroke:#000000;stroke-width:0.6;" x="118.773037" xlink:href="#meb959a2cd8" y="273.312"/>
      </g>
     </g>
    </g>
    <g id="xtick_16">
     <g id="line2d_16">
      <g>
       <use style="stroke:#000000;stroke-width:0.6;" x="123.108389" xlink:href="#meb959a2cd8" y="273.312"/>
      </g>
     </g>
    </g>
    <g id="xtick_17">
     <g id="line2d_17">
      <g>
       <use style="stroke:#000000;stroke-width:0.6;" x="126.863842" xlink:href="#meb959a2cd8" y="273.312"/>
      </g>
     </g>
    </g>
    <g id="xtick_18">
     <g id="line2d_18">
      <g>
       <use style="stroke:#000000;stroke-width:0.6;" x="130.176386" xlink:href="#meb959a2cd8" y="273.312"/>
      </g>
     </g>
    </g>
    <g id="xtick_19">
     <g id="line2d_19">
      <g>
       <use style="stroke:#000000;stroke-width:0.6;" x="152.633711" xlink:href="#meb959a2cd8" y="273.312"/>
      </g>
     </g>
    </g>
    <g id="xtick_20">
     <g id="line2d_20">
      <g>
       <use style="stroke:#000000;stroke-width:0.6;" x="164.03706" xlink:href="#meb959a2cd8" y="273.312"/>
      </g>
     </g>
    </g>
    <g id="xtick_21">
     <g id="line2d_21">
      <g>
       <use style="stroke:#000000;stroke-width:0.6;" x="172.127865" xlink:href="#meb959a2cd8" y="273.312"/>
      </g>
     </g>
    </g>
    <g id="xtick_22">
     <g id="line2d_22">
      <g>
       <use style="stroke:#000000;stroke-width:0.6;" x="178.403581" xlink:href="#meb959a2cd8" y="273.312"/>
      </g>
     </g>
    </g>
    <g id="xtick_23">
     <g id="line2d_23">
      <g>
       <use style="stroke:#000000;stroke-width:0.6;" x="183.531214" xlink:href="#meb959a2cd8" y="273.312"/>
      </g>
     </g>
    </g>
    <g id="xtick_24">
     <g id="line2d_24">
      <g>
       <use style="stroke:#000000;stroke-width:0.6;" x="187.866566" xlink:href="#meb959a2cd8" y="273.312"/>
      </g>
     </g>
    </g>
    <g id="xtick_25">
     <g id="line2d_25">
      <g>
       <use style="stroke:#000000;stroke-width:0.6;" x="191.622019" xlink:href="#meb959a2cd8" y="273.312"/>
      </g>
     </g>
    </g>
    <g id="xtick_26">
     <g id="line2d_26">
      <g>
       <use style="stroke:#000000;stroke-width:0.6;" x="194.934563" xlink:href="#meb959a2cd8" y="273.312"/>
      </g>
     </g>
    </g>
    <g id="xtick_27">
     <g id="line2d_27">
      <g>
       <use style="stroke:#000000;stroke-width:0.6;" x="217.391888" xlink:href="#meb959a2cd8" y="273.312"/>
      </g>
     </g>
    </g>
    <g id="xtick_28">
     <g id="line2d_28">
      <g>
       <use style="stroke:#000000;stroke-width:0.6;" x="228.795237" xlink:href="#meb959a2cd8" y="273.312"/>
      </g>
     </g>
    </g>
    <g id="xtick_29">
     <g id="line2d_29">
      <g>
       <use style="stroke:#000000;stroke-width:0.6;" x="236.886042" xlink:href="#meb959a2cd8" y="273.312"/>
      </g>
     </g>
    </g>
    <g id="xtick_30">
     <g id="line2d_30">
      <g>
       <use style="stroke:#000000;stroke-width:0.6;" x="243.161757" xlink:href="#meb959a2cd8" y="273.312"/>
      </g>
     </g>
    </g>
    <g id="xtick_31">
     <g id="line2d_31">
      <g>
       <use style="stroke:#000000;stroke-width:0.6;" x="248.28939" xlink:href="#meb959a2cd8" y="273.312"/>
      </g>
     </g>
    </g>
    <g id="xtick_32">
     <g id="line2d_32">
      <g>
       <use style="stroke:#000000;stroke-width:0.6;" x="252.624743" xlink:href="#meb959a2cd8" y="273.312"/>
      </g>
     </g>
    </g>
    <g id="xtick_33">
     <g id="line2d_33">
      <g>
       <use style="stroke:#000000;stroke-width:0.6;" x="256.380195" xlink:href="#meb959a2cd8" y="273.312"/>
      </g>
     </g>
    </g>
    <g id="xtick_34">
     <g id="line2d_34">
      <g>
       <use style="stroke:#000000;stroke-width:0.6;" x="259.692739" xlink:href="#meb959a2cd8" y="273.312"/>
      </g>
     </g>
    </g>
    <g id="xtick_35">
     <g id="line2d_35">
      <g>
       <use style="stroke:#000000;stroke-width:0.6;" x="282.150065" xlink:href="#meb959a2cd8" y="273.312"/>
      </g>
     </g>
    </g>
    <g id="xtick_36">
     <g id="line2d_36">
      <g>
       <use style="stroke:#000000;stroke-width:0.6;" x="293.553413" xlink:href="#meb959a2cd8" y="273.312"/>
      </g>
     </g>
    </g>
    <g id="xtick_37">
     <g id="line2d_37">
      <g>
       <use style="stroke:#000000;stroke-width:0.6;" x="301.644218" xlink:href="#meb959a2cd8" y="273.312"/>
      </g>
     </g>
    </g>
    <g id="xtick_38">
     <g id="line2d_38">
      <g>
       <use style="stroke:#000000;stroke-width:0.6;" x="307.919934" xlink:href="#meb959a2cd8" y="273.312"/>
      </g>
     </g>
    </g>
    <g id="xtick_39">
     <g id="line2d_39">
      <g>
       <use style="stroke:#000000;stroke-width:0.6;" x="313.047567" xlink:href="#meb959a2cd8" y="273.312"/>
      </g>
     </g>
    </g>
    <g id="xtick_40">
     <g id="line2d_40">
      <g>
       <use style="stroke:#000000;stroke-width:0.6;" x="317.382919" xlink:href="#meb959a2cd8" y="273.312"/>
      </g>
     </g>
    </g>
    <g id="xtick_41">
     <g id="line2d_41">
      <g>
       <use style="stroke:#000000;stroke-width:0.6;" x="321.138372" xlink:href="#meb959a2cd8" y="273.312"/>
      </g>
     </g>
    </g>
    <g id="xtick_42">
     <g id="line2d_42">
      <g>
       <use style="stroke:#000000;stroke-width:0.6;" x="324.450916" xlink:href="#meb959a2cd8" y="273.312"/>
      </g>
     </g>
    </g>
    <g id="xtick_43">
     <g id="line2d_43">
      <g>
       <use style="stroke:#000000;stroke-width:0.6;" x="346.908241" xlink:href="#meb959a2cd8" y="273.312"/>
      </g>
     </g>
    </g>
    <g id="xtick_44">
     <g id="line2d_44">
      <g>
       <use style="stroke:#000000;stroke-width:0.6;" x="358.31159" xlink:href="#meb959a2cd8" y="273.312"/>
      </g>
     </g>
    </g>
    <g id="xtick_45">
     <g id="line2d_45">
      <g>
       <use style="stroke:#000000;stroke-width:0.6;" x="366.402395" xlink:href="#meb959a2cd8" y="273.312"/>
      </g>
     </g>
    </g>
    <g id="xtick_46">
     <g id="line2d_46">
      <g>
       <use style="stroke:#000000;stroke-width:0.6;" x="372.678111" xlink:href="#meb959a2cd8" y="273.312"/>
      </g>
     </g>
    </g>
    <g id="xtick_47">
     <g id="line2d_47">
      <g>
       <use style="stroke:#000000;stroke-width:0.6;" x="377.805744" xlink:href="#meb959a2cd8" y="273.312"/>
      </g>
     </g>
    </g>
    <g id="xtick_48">
     <g id="line2d_48">
      <g>
       <use style="stroke:#000000;stroke-width:0.6;" x="382.141096" xlink:href="#meb959a2cd8" y="273.312"/>
      </g>
     </g>
    </g>
    <g id="xtick_49">
     <g id="line2d_49">
      <g>
       <use style="stroke:#000000;stroke-width:0.6;" x="385.896548" xlink:href="#meb959a2cd8" y="273.312"/>
      </g>
     </g>
    </g>
    <g id="xtick_50">
     <g id="line2d_50">
      <g>
       <use style="stroke:#000000;stroke-width:0.6;" x="389.209093" xlink:href="#meb959a2cd8" y="273.312"/>
      </g>
     </g>
    </g>
    <g id="text_7">
     <!-- E$_k$ (MeV)  -->
     <defs>
      <path d="M 9.8125 72.90625 
L 55.90625 72.90625 
L 55.90625 64.59375 
L 19.671875 64.59375 
L 19.671875 43.015625 
L 54.390625 43.015625 
L 54.390625 34.71875 
L 19.671875 34.71875 
L 19.671875 8.296875 
L 56.78125 8.296875 
L 56.78125 0 
L 9.8125 0 
z
" id="DejaVuSans-69"/>
      <path d="M 18.3125 75.984375 
L 27.296875 75.984375 
L 18.703125 31.6875 
L 49.515625 54.6875 
L 61.1875 54.6875 
L 26.8125 28.515625 
L 51.90625 0 
L 41.015625 0 
L 17.671875 26.703125 
L 12.5 0 
L 3.515625 0 
z
" id="DejaVuSans-Oblique-107"/>
      <path id="DejaVuSans-32"/>
      <path d="M 31 75.875 
Q 24.46875 64.65625 21.28125 53.65625 
Q 18.109375 42.671875 18.109375 31.390625 
Q 18.109375 20.125 21.3125 9.0625 
Q 24.515625 -2 31 -13.1875 
L 23.1875 -13.1875 
Q 15.875 -1.703125 12.234375 9.375 
Q 8.59375 20.453125 8.59375 31.390625 
Q 8.59375 42.28125 12.203125 53.3125 
Q 15.828125 64.359375 23.1875 75.875 
z
" id="DejaVuSans-40"/>
      <path d="M 9.8125 72.90625 
L 24.515625 72.90625 
L 43.109375 23.296875 
L 61.8125 72.90625 
L 76.515625 72.90625 
L 76.515625 0 
L 66.890625 0 
L 66.890625 64.015625 
L 48.09375 14.015625 
L 38.1875 14.015625 
L 19.390625 64.015625 
L 19.390625 0 
L 9.8125 0 
z
" id="DejaVuSans-77"/>
      <path d="M 56.203125 29.59375 
L 56.203125 25.203125 
L 14.890625 25.203125 
Q 15.484375 15.921875 20.484375 11.0625 
Q 25.484375 6.203125 34.421875 6.203125 
Q 39.59375 6.203125 44.453125 7.46875 
Q 49.3125 8.734375 54.109375 11.28125 
L 54.109375 2.78125 
Q 49.265625 0.734375 44.1875 -0.34375 
Q 39.109375 -1.421875 33.890625 -1.421875 
Q 20.796875 -1.421875 13.15625 6.1875 
Q 5.515625 13.8125 5.515625 26.8125 
Q 5.515625 40.234375 12.765625 48.109375 
Q 20.015625 56 32.328125 56 
Q 43.359375 56 49.78125 48.890625 
Q 56.203125 41.796875 56.203125 29.59375 
z
M 47.21875 32.234375 
Q 47.125 39.59375 43.09375 43.984375 
Q 39.0625 48.390625 32.421875 48.390625 
Q 24.90625 48.390625 20.390625 44.140625 
Q 15.875 39.890625 15.1875 32.171875 
z
" id="DejaVuSans-101"/>
      <path d="M 28.609375 0 
L 0.78125 72.90625 
L 11.078125 72.90625 
L 34.1875 11.53125 
L 57.328125 72.90625 
L 67.578125 72.90625 
L 39.796875 0 
z
" id="DejaVuSans-86"/>
      <path d="M 8.015625 75.875 
L 15.828125 75.875 
Q 23.140625 64.359375 26.78125 53.3125 
Q 30.421875 42.28125 30.421875 31.390625 
Q 30.421875 20.453125 26.78125 9.375 
Q 23.140625 -1.703125 15.828125 -13.1875 
L 8.015625 -13.1875 
Q 14.5 -2 17.703125 9.0625 
Q 20.90625 20.125 20.90625 31.390625 
Q 20.90625 42.671875 17.703125 53.65625 
Q 14.5 64.65625 8.015625 75.875 
z
" id="DejaVuSans-41"/>
     </defs>
     <g transform="translate(192.565 306.147625)scale(0.16 -0.16)">
      <use transform="translate(0 0.125)" xlink:href="#DejaVuSans-69"/>
      <use transform="translate(64.140625 -16.28125)scale(0.7)" xlink:href="#DejaVuSans-Oblique-107"/>
      <use transform="translate(107.412109 0.125)" xlink:href="#DejaVuSans-32"/>
      <use transform="translate(139.199219 0.125)" xlink:href="#DejaVuSans-40"/>
      <use transform="translate(178.212891 0.125)" xlink:href="#DejaVuSans-77"/>
      <use transform="translate(264.492188 0.125)" xlink:href="#DejaVuSans-101"/>
      <use transform="translate(326.015625 0.125)" xlink:href="#DejaVuSans-86"/>
      <use transform="translate(394.423828 0.125)" xlink:href="#DejaVuSans-41"/>
      <use transform="translate(433.4375 0.125)" xlink:href="#DejaVuSans-32"/>
     </g>
    </g>
   </g>
   <g id="matplotlib.axis_2">
    <g id="ytick_1">
     <g id="line2d_51">
      <defs>
       <path d="M 0 0 
L -3.5 0 
" id="m6233ada9d7" style="stroke:#000000;stroke-width:0.8;"/>
      </defs>
      <g>
       <use style="stroke:#000000;stroke-width:0.8;" x="51.285" xlink:href="#m6233ada9d7" y="183.272649"/>
      </g>
     </g>
     <g id="text_8">
      <!-- $\mathdefault{10^{1}}$ -->
      <g transform="translate(26.685 187.071868)scale(0.1 -0.1)">
       <use transform="translate(0 0.684375)" xlink:href="#DejaVuSans-49"/>
       <use transform="translate(63.623047 0.684375)" xlink:href="#DejaVuSans-48"/>
       <use transform="translate(128.203125 38.965625)scale(0.7)" xlink:href="#DejaVuSans-49"/>
      </g>
     </g>
    </g>
    <g id="ytick_2">
     <g id="line2d_52">
      <g>
       <use style="stroke:#000000;stroke-width:0.8;" x="51.285" xlink:href="#m6233ada9d7" y="70.802351"/>
      </g>
     </g>
     <g id="text_9">
      <!-- $\mathdefault{10^{2}}$ -->
      <g transform="translate(26.685 74.60157)scale(0.1 -0.1)">
       <use transform="translate(0 0.765625)" xlink:href="#DejaVuSans-49"/>
       <use transform="translate(63.623047 0.765625)" xlink:href="#DejaVuSans-48"/>
       <use transform="translate(128.203125 39.046875)scale(0.7)" xlink:href="#DejaVuSans-50"/>
      </g>
     </g>
    </g>
    <g id="ytick_3">
     <g id="line2d_53">
      <defs>
       <path d="M 0 0 
L -2 0 
" id="m8e68830eaa" style="stroke:#000000;stroke-width:0.6;"/>
      </defs>
      <g>
       <use style="stroke:#000000;stroke-width:0.6;" x="51.285" xlink:href="#m8e68830eaa" y="261.886014"/>
      </g>
     </g>
    </g>
    <g id="ytick_4">
     <g id="line2d_54">
      <g>
       <use style="stroke:#000000;stroke-width:0.6;" x="51.285" xlink:href="#m8e68830eaa" y="242.080978"/>
      </g>
     </g>
    </g>
    <g id="ytick_5">
     <g id="line2d_55">
      <g>
       <use style="stroke:#000000;stroke-width:0.6;" x="51.285" xlink:href="#m8e68830eaa" y="228.029081"/>
      </g>
     </g>
    </g>
    <g id="ytick_6">
     <g id="line2d_56">
      <g>
       <use style="stroke:#000000;stroke-width:0.6;" x="51.285" xlink:href="#m8e68830eaa" y="217.129583"/>
      </g>
     </g>
    </g>
    <g id="ytick_7">
     <g id="line2d_57">
      <g>
       <use style="stroke:#000000;stroke-width:0.6;" x="51.285" xlink:href="#m8e68830eaa" y="208.224044"/>
      </g>
     </g>
    </g>
    <g id="ytick_8">
     <g id="line2d_58">
      <g>
       <use style="stroke:#000000;stroke-width:0.6;" x="51.285" xlink:href="#m8e68830eaa" y="200.694519"/>
      </g>
     </g>
    </g>
    <g id="ytick_9">
     <g id="line2d_59">
      <g>
       <use style="stroke:#000000;stroke-width:0.6;" x="51.285" xlink:href="#m8e68830eaa" y="194.172147"/>
      </g>
     </g>
    </g>
    <g id="ytick_10">
     <g id="line2d_60">
      <g>
       <use style="stroke:#000000;stroke-width:0.6;" x="51.285" xlink:href="#m8e68830eaa" y="188.419008"/>
      </g>
     </g>
    </g>
    <g id="ytick_11">
     <g id="line2d_61">
      <g>
       <use style="stroke:#000000;stroke-width:0.6;" x="51.285" xlink:href="#m8e68830eaa" y="149.415716"/>
      </g>
     </g>
    </g>
    <g id="ytick_12">
     <g id="line2d_62">
      <g>
       <use style="stroke:#000000;stroke-width:0.6;" x="51.285" xlink:href="#m8e68830eaa" y="129.610679"/>
      </g>
     </g>
    </g>
    <g id="ytick_13">
     <g id="line2d_63">
      <g>
       <use style="stroke:#000000;stroke-width:0.6;" x="51.285" xlink:href="#m8e68830eaa" y="115.558782"/>
      </g>
     </g>
    </g>
    <g id="ytick_14">
     <g id="line2d_64">
      <g>
       <use style="stroke:#000000;stroke-width:0.6;" x="51.285" xlink:href="#m8e68830eaa" y="104.659284"/>
      </g>
     </g>
    </g>
    <g id="ytick_15">
     <g id="line2d_65">
      <g>
       <use style="stroke:#000000;stroke-width:0.6;" x="51.285" xlink:href="#m8e68830eaa" y="95.753746"/>
      </g>
     </g>
    </g>
    <g id="ytick_16">
     <g id="line2d_66">
      <g>
       <use style="stroke:#000000;stroke-width:0.6;" x="51.285" xlink:href="#m8e68830eaa" y="88.224221"/>
      </g>
     </g>
    </g>
    <g id="ytick_17">
     <g id="line2d_67">
      <g>
       <use style="stroke:#000000;stroke-width:0.6;" x="51.285" xlink:href="#m8e68830eaa" y="81.701849"/>
      </g>
     </g>
    </g>
    <g id="ytick_18">
     <g id="line2d_68">
      <g>
       <use style="stroke:#000000;stroke-width:0.6;" x="51.285" xlink:href="#m8e68830eaa" y="75.94871"/>
      </g>
     </g>
    </g>
    <g id="ytick_19">
     <g id="line2d_69">
      <g>
       <use style="stroke:#000000;stroke-width:0.6;" x="51.285" xlink:href="#m8e68830eaa" y="36.945418"/>
      </g>
     </g>
    </g>
    <g id="ytick_20">
     <g id="line2d_70">
      <g>
       <use style="stroke:#000000;stroke-width:0.6;" x="51.285" xlink:href="#m8e68830eaa" y="17.140381"/>
      </g>
     </g>
    </g>
    <g id="text_10">
     <!-- dE/dx (MeV/cm)  -->
     <defs>
      <path d="M 45.40625 46.390625 
L 45.40625 75.984375 
L 54.390625 75.984375 
L 54.390625 0 
L 45.40625 0 
L 45.40625 8.203125 
Q 42.578125 3.328125 38.25 0.953125 
Q 33.9375 -1.421875 27.875 -1.421875 
Q 17.96875 -1.421875 11.734375 6.484375 
Q 5.515625 14.40625 5.515625 27.296875 
Q 5.515625 40.1875 11.734375 48.09375 
Q 17.96875 56 27.875 56 
Q 33.9375 56 38.25 53.625 
Q 42.578125 51.265625 45.40625 46.390625 
z
M 14.796875 27.296875 
Q 14.796875 17.390625 18.875 11.75 
Q 22.953125 6.109375 30.078125 6.109375 
Q 37.203125 6.109375 41.296875 11.75 
Q 45.40625 17.390625 45.40625 27.296875 
Q 45.40625 37.203125 41.296875 42.84375 
Q 37.203125 48.484375 30.078125 48.484375 
Q 22.953125 48.484375 18.875 42.84375 
Q 14.796875 37.203125 14.796875 27.296875 
z
" id="DejaVuSans-100"/>
      <path d="M 25.390625 72.90625 
L 33.6875 72.90625 
L 8.296875 -9.28125 
L 0 -9.28125 
z
" id="DejaVuSans-47"/>
      <path d="M 54.890625 54.6875 
L 35.109375 28.078125 
L 55.90625 0 
L 45.3125 0 
L 29.390625 21.484375 
L 13.484375 0 
L 2.875 0 
L 24.125 28.609375 
L 4.6875 54.6875 
L 15.28125 54.6875 
L 29.78125 35.203125 
L 44.28125 54.6875 
z
" id="DejaVuSans-120"/>
      <path d="M 48.78125 52.59375 
L 48.78125 44.1875 
Q 44.96875 46.296875 41.140625 47.34375 
Q 37.3125 48.390625 33.40625 48.390625 
Q 24.65625 48.390625 19.8125 42.84375 
Q 14.984375 37.3125 14.984375 27.296875 
Q 14.984375 17.28125 19.8125 11.734375 
Q 24.65625 6.203125 33.40625 6.203125 
Q 37.3125 6.203125 41.140625 7.25 
Q 44.96875 8.296875 48.78125 10.40625 
L 48.78125 2.09375 
Q 45.015625 0.34375 40.984375 -0.53125 
Q 36.96875 -1.421875 32.421875 -1.421875 
Q 20.0625 -1.421875 12.78125 6.34375 
Q 5.515625 14.109375 5.515625 27.296875 
Q 5.515625 40.671875 12.859375 48.328125 
Q 20.21875 56 33.015625 56 
Q 37.15625 56 41.109375 55.140625 
Q 45.0625 54.296875 48.78125 52.59375 
z
" id="DejaVuSans-99"/>
      <path d="M 52 44.1875 
Q 55.375 50.25 60.0625 53.125 
Q 64.75 56 71.09375 56 
Q 79.640625 56 84.28125 50.015625 
Q 88.921875 44.046875 88.921875 33.015625 
L 88.921875 0 
L 79.890625 0 
L 79.890625 32.71875 
Q 79.890625 40.578125 77.09375 44.375 
Q 74.3125 48.1875 68.609375 48.1875 
Q 61.625 48.1875 57.5625 43.546875 
Q 53.515625 38.921875 53.515625 30.90625 
L 53.515625 0 
L 44.484375 0 
L 44.484375 32.71875 
Q 44.484375 40.625 41.703125 44.40625 
Q 38.921875 48.1875 33.109375 48.1875 
Q 26.21875 48.1875 22.15625 43.53125 
Q 18.109375 38.875 18.109375 30.90625 
L 18.109375 0 
L 9.078125 0 
L 9.078125 54.6875 
L 18.109375 54.6875 
L 18.109375 46.1875 
Q 21.1875 51.21875 25.484375 53.609375 
Q 29.78125 56 35.6875 56 
Q 41.65625 56 45.828125 52.96875 
Q 50 49.953125 52 44.1875 
z
" id="DejaVuSans-109"/>
     </defs>
     <g transform="translate(19.3575 206.40975)rotate(-90)scale(0.16 -0.16)">
      <use xlink:href="#DejaVuSans-100"/>
      <use x="63.476562" xlink:href="#DejaVuSans-69"/>
      <use x="126.660156" xlink:href="#DejaVuSans-47"/>
      <use x="160.351562" xlink:href="#DejaVuSans-100"/>
      <use x="223.828125" xlink:href="#DejaVuSans-120"/>
      <use x="283.007812" xlink:href="#DejaVuSans-32"/>
      <use x="314.794922" xlink:href="#DejaVuSans-40"/>
      <use x="353.808594" xlink:href="#DejaVuSans-77"/>
      <use x="440.087891" xlink:href="#DejaVuSans-101"/>
      <use x="501.611328" xlink:href="#DejaVuSans-86"/>
      <use x="570.019531" xlink:href="#DejaVuSans-47"/>
      <use x="603.710938" xlink:href="#DejaVuSans-99"/>
      <use x="658.691406" xlink:href="#DejaVuSans-109"/>
      <use x="756.103516" xlink:href="#DejaVuSans-41"/>
      <use x="795.117188" xlink:href="#DejaVuSans-32"/>
     </g>
    </g>
   </g>
   <g id="patch_3">
    <path d="M 51.285 273.312 
L 51.285 7.2 
" style="fill:none;stroke:#000000;stroke-linecap:square;stroke-linejoin:miter;stroke-width:0.8;"/>
   </g>
   <g id="patch_4">
    <path d="M 408.405 273.312 
L 408.405 7.2 
" style="fill:none;stroke:#000000;stroke-linecap:square;stroke-linejoin:miter;stroke-width:0.8;"/>
   </g>
   <g id="patch_5">
    <path d="M 51.285 273.312 
L 408.405 273.312 
" style="fill:none;stroke:#000000;stroke-linecap:square;stroke-linejoin:miter;stroke-width:0.8;"/>
   </g>
   <g id="patch_6">
    <path d="M 51.285 7.2 
L 408.405 7.2 
" style="fill:none;stroke:#000000;stroke-linecap:square;stroke-linejoin:miter;stroke-width:0.8;"/>
   </g>
  </g>
 </g>
 <defs>
  <clipPath id="p06f8e9a0c0">
   <rect height="266.112" width="357.12" x="51.285" y="7.2"/>
  </clipPath>
 </defs>
</svg>
