<?xml version="1.0" encoding="utf-8" standalone="no"?>
<!DOCTYPE svg PUBLIC "-//W3C//DTD SVG 1.1//EN"
  "http://www.w3.org/Graphics/SVG/1.1/DTD/svg11.dtd">
<!-- Created with matplotlib (https://matplotlib.org/) -->
<svg height="316.870125pt" version="1.1" viewBox="0 0 415.605 316.870125" width="415.605pt" xmlns="http://www.w3.org/2000/svg" xmlns:xlink="http://www.w3.org/1999/xlink">
 <defs>
  <style type="text/css">
*{stroke-linecap:butt;stroke-linejoin:round;}
  </style>
 </defs>
 <g id="figure_1">
  <g id="patch_1">
   <path d="M 0 316.870125 
L 415.605 316.870125 
L 415.605 0 
L 0 0 
z
" style="fill:#ffffff;"/>
  </g>
  <g id="axes_1">
   <g id="patch_2">
    <path d="M 51.285 273.312 
L 408.405 273.312 
L 408.405 7.2 
L 51.285 7.2 
z
" style="fill:#ffffff;"/>
   </g>
   <g id="PathCollection_1">
    <defs>
     <path d="M 0 1.5 
C 0.397805 1.5 0.77937 1.341951 1.06066 1.06066 
C 1.341951 0.77937 1.5 0.397805 1.5 0 
C 1.5 -0.397805 1.341951 -0.77937 1.06066 -1.06066 
C 0.77937 -1.341951 0.397805 -1.5 0 -1.5 
C -0.397805 -1.5 -0.77937 -1.341951 -1.06066 -1.06066 
C -1.341951 -0.77937 -1.5 -0.397805 -1.5 0 
C -1.5 0.397805 -1.341951 0.77937 -1.06066 1.06066 
C -0.77937 1.341951 -0.397805 1.5 0 1.5 
z
" id="md8fa3958da" style="stroke:#000000;"/>
    </defs>
    <g clip-path="url(#p5b25d5cef8)">
     <use style="stroke:#000000;" x="70.528275" xlink:href="#md8fa3958da" y="19.296691"/>
     <use style="stroke:#000000;" x="72.959883" xlink:href="#md8fa3958da" y="23.218361"/>
     <use style="stroke:#000000;" x="75.391641" xlink:href="#md8fa3958da" y="27.19983"/>
     <use style="stroke:#000000;" x="77.823568" xlink:href="#md8fa3958da" y="31.236924"/>
     <use style="stroke:#000000;" x="80.255685" xlink:href="#md8fa3958da" y="35.325852"/>
     <use style="stroke:#000000;" x="82.688014" xlink:href="#md8fa3958da" y="39.463151"/>
     <use style="stroke:#000000;" x="85.120583" xlink:href="#md8fa3958da" y="43.645645"/>
     <use style="stroke:#000000;" x="87.55342" xlink:href="#md8fa3958da" y="47.870404"/>
     <use style="stroke:#000000;" x="89.986558" xlink:href="#md8fa3958da" y="52.134713"/>
     <use style="stroke:#000000;" x="92.420036" xlink:href="#md8fa3958da" y="56.436043"/>
     <use style="stroke:#000000;" x="94.853893" xlink:href="#md8fa3958da" y="60.772024"/>
     <use style="stroke:#000000;" x="97.288178" xlink:href="#md8fa3958da" y="65.140421"/>
     <use style="stroke:#000000;" x="99.722942" xlink:href="#md8fa3958da" y="69.539115"/>
     <use style="stroke:#000000;" x="102.158245" xlink:href="#md8fa3958da" y="73.966082"/>
     <use style="stroke:#000000;" x="104.594152" xlink:href="#md8fa3958da" y="78.419377"/>
     <use style="stroke:#000000;" x="107.030739" xlink:href="#md8fa3958da" y="82.897112"/>
     <use style="stroke:#000000;" x="109.468087" xlink:href="#md8fa3958da" y="87.397445"/>
     <use style="stroke:#000000;" x="111.906291" xlink:href="#md8fa3958da" y="91.918564"/>
     <use style="stroke:#000000;" x="114.345455" xlink:href="#md8fa3958da" y="96.458666"/>
     <use style="stroke:#000000;" x="116.785697" xlink:href="#md8fa3958da" y="101.015946"/>
     <use style="stroke:#000000;" x="119.227148" xlink:href="#md8fa3958da" y="105.58858"/>
     <use style="stroke:#000000;" x="121.669957" xlink:href="#md8fa3958da" y="110.17471"/>
     <use style="stroke:#000000;" x="124.114288" xlink:href="#md8fa3958da" y="114.772423"/>
     <use style="stroke:#000000;" x="126.560328" xlink:href="#md8fa3958da" y="119.379741"/>
     <use style="stroke:#000000;" x="129.008284" xlink:href="#md8fa3958da" y="123.994595"/>
     <use style="stroke:#000000;" x="131.458389" xlink:href="#md8fa3958da" y="128.614811"/>
     <use style="stroke:#000000;" x="133.910903" xlink:href="#md8fa3958da" y="133.238086"/>
     <use style="stroke:#000000;" x="136.366118" xlink:href="#md8fa3958da" y="137.861971"/>
     <use style="stroke:#000000;" x="138.82436" xlink:href="#md8fa3958da" y="142.483844"/>
     <use style="stroke:#000000;" x="141.285992" xlink:href="#md8fa3958da" y="147.100885"/>
     <use style="stroke:#000000;" x="143.751421" xlink:href="#md8fa3958da" y="151.710054"/>
     <use style="stroke:#000000;" x="146.221102" xlink:href="#md8fa3958da" y="156.308062"/>
     <use style="stroke:#000000;" x="148.695541" xlink:href="#md8fa3958da" y="160.891341"/>
     <use style="stroke:#000000;" x="151.175302" xlink:href="#md8fa3958da" y="165.456016"/>
     <use style="stroke:#000000;" x="153.661012" xlink:href="#md8fa3958da" y="169.997872"/>
     <use style="stroke:#000000;" x="156.153371" xlink:href="#md8fa3958da" y="174.512327"/>
     <use style="stroke:#000000;" x="158.653154" xlink:href="#md8fa3958da" y="178.994395"/>
     <use style="stroke:#000000;" x="161.161221" xlink:href="#md8fa3958da" y="183.438663"/>
     <use style="stroke:#000000;" x="163.678524" xlink:href="#md8fa3958da" y="187.839256"/>
     <use style="stroke:#000000;" x="166.206117" xlink:href="#md8fa3958da" y="192.189815"/>
     <use style="stroke:#000000;" x="168.745162" xlink:href="#md8fa3958da" y="196.483476"/>
     <use style="stroke:#000000;" x="171.296936" xlink:href="#md8fa3958da" y="200.712856"/>
     <use style="stroke:#000000;" x="173.862844" xlink:href="#md8fa3958da" y="204.870045"/>
     <use style="stroke:#000000;" x="176.444424" xlink:href="#md8fa3958da" y="208.946616"/>
     <use style="stroke:#000000;" x="179.043356" xlink:href="#md8fa3958da" y="212.933643"/>
     <use style="stroke:#000000;" x="181.661466" xlink:href="#md8fa3958da" y="216.821735"/>
     <use style="stroke:#000000;" x="184.300734" xlink:href="#md8fa3958da" y="220.601097"/>
     <use style="stroke:#000000;" x="186.9633" xlink:href="#md8fa3958da" y="224.26161"/>
     <use style="stroke:#000000;" x="189.651459" xlink:href="#md8fa3958da" y="227.792931"/>
     <use style="stroke:#000000;" x="192.367665" xlink:href="#md8fa3958da" y="231.184633"/>
     <use style="stroke:#000000;" x="195.114526" xlink:href="#md8fa3958da" y="234.426364"/>
     <use style="stroke:#000000;" x="197.894792" xlink:href="#md8fa3958da" y="237.508035"/>
     <use style="stroke:#000000;" x="200.711345" xlink:href="#md8fa3958da" y="240.420031"/>
     <use style="stroke:#000000;" x="203.567178" xlink:href="#md8fa3958da" y="243.153449"/>
     <use style="stroke:#000000;" x="206.465372" xlink:href="#md8fa3958da" y="245.700338"/>
     <use style="stroke:#000000;" x="209.409065" xlink:href="#md8fa3958da" y="248.05395"/>
     <use style="stroke:#000000;" x="212.401413" xlink:href="#md8fa3958da" y="250.208969"/>
     <use style="stroke:#000000;" x="215.445551" xlink:href="#md8fa3958da" y="252.161729"/>
     <use style="stroke:#000000;" x="218.544545" xlink:href="#md8fa3958da" y="253.910386"/>
     <use style="stroke:#000000;" x="221.701335" xlink:href="#md8fa3958da" y="255.455041"/>
     <use style="stroke:#000000;" x="224.918685" xlink:href="#md8fa3958da" y="256.797799"/>
     <use style="stroke:#000000;" x="228.199125" xlink:href="#md8fa3958da" y="257.942768"/>
     <use style="stroke:#000000;" x="231.544895" xlink:href="#md8fa3958da" y="258.895969"/>
     <use style="stroke:#000000;" x="234.957894" xlink:href="#md8fa3958da" y="259.665196"/>
     <use style="stroke:#000000;" x="238.439631" xlink:href="#md8fa3958da" y="260.259803"/>
     <use style="stroke:#000000;" x="241.991192" xlink:href="#md8fa3958da" y="260.690444"/>
     <use style="stroke:#000000;" x="245.613207" xlink:href="#md8fa3958da" y="260.968777"/>
     <use style="stroke:#000000;" x="249.305834" xlink:href="#md8fa3958da" y="261.10716"/>
     <use style="stroke:#000000;" x="253.068757" xlink:href="#md8fa3958da" y="261.11833"/>
     <use style="stroke:#000000;" x="256.901193" xlink:href="#md8fa3958da" y="261.015117"/>
     <use style="stroke:#000000;" x="260.80191" xlink:href="#md8fa3958da" y="260.810168"/>
     <use style="stroke:#000000;" x="264.769265" xlink:href="#md8fa3958da" y="260.515726"/>
     <use style="stroke:#000000;" x="268.80124" xlink:href="#md8fa3958da" y="260.143436"/>
     <use style="stroke:#000000;" x="272.895494" xlink:href="#md8fa3958da" y="259.704208"/>
     <use style="stroke:#000000;" x="277.049411" xlink:href="#md8fa3958da" y="259.208123"/>
     <use style="stroke:#000000;" x="281.260164" xlink:href="#md8fa3958da" y="258.664374"/>
     <use style="stroke:#000000;" x="285.524763" xlink:href="#md8fa3958da" y="258.081247"/>
     <use style="stroke:#000000;" x="289.840116" xlink:href="#md8fa3958da" y="257.466136"/>
     <use style="stroke:#000000;" x="294.203074" xlink:href="#md8fa3958da" y="256.825571"/>
     <use style="stroke:#000000;" x="298.610483" xlink:href="#md8fa3958da" y="256.165269"/>
     <use style="stroke:#000000;" x="303.05922" xlink:href="#md8fa3958da" y="255.490199"/>
     <use style="stroke:#000000;" x="307.546231" xlink:href="#md8fa3958da" y="254.804647"/>
     <use style="stroke:#000000;" x="312.068556" xlink:href="#md8fa3958da" y="254.112285"/>
     <use style="stroke:#000000;" x="316.623357" xlink:href="#md8fa3958da" y="253.416242"/>
     <use style="stroke:#000000;" x="321.207928" xlink:href="#md8fa3958da" y="252.719172"/>
     <use style="stroke:#000000;" x="325.819714" xlink:href="#md8fa3958da" y="252.02331"/>
     <use style="stroke:#000000;" x="330.456311" xlink:href="#md8fa3958da" y="251.330537"/>
     <use style="stroke:#000000;" x="335.115476" xlink:href="#md8fa3958da" y="250.642421"/>
     <use style="stroke:#000000;" x="339.795124" xlink:href="#md8fa3958da" y="249.960266"/>
     <use style="stroke:#000000;" x="344.493326" xlink:href="#md8fa3958da" y="249.285153"/>
     <use style="stroke:#000000;" x="349.208305" xlink:href="#md8fa3958da" y="248.617964"/>
     <use style="stroke:#000000;" x="353.938429" xlink:href="#md8fa3958da" y="247.959421"/>
     <use style="stroke:#000000;" x="358.682205" xlink:href="#md8fa3958da" y="247.310099"/>
     <use style="stroke:#000000;" x="363.438273" xlink:href="#md8fa3958da" y="246.670452"/>
     <use style="stroke:#000000;" x="368.205392" xlink:href="#md8fa3958da" y="246.040825"/>
     <use style="stroke:#000000;" x="372.98244" xlink:href="#md8fa3958da" y="245.421468"/>
     <use style="stroke:#000000;" x="377.768396" xlink:href="#md8fa3958da" y="244.812549"/>
     <use style="stroke:#000000;" x="382.56234" xlink:href="#md8fa3958da" y="244.21416"/>
     <use style="stroke:#000000;" x="387.363442" xlink:href="#md8fa3958da" y="243.626324"/>
     <use style="stroke:#000000;" x="392.170951" xlink:href="#md8fa3958da" y="243.049005"/>
    </g>
   </g>
   <g id="matplotlib.axis_1">
    <g id="xtick_1">
     <g id="line2d_1">
      <defs>
       <path d="M 0 0 
L 0 3.5 
" id="m7ea9280cf6" style="stroke:#000000;stroke-width:0.8;"/>
      </defs>
      <g>
       <use style="stroke:#000000;stroke-width:0.8;" x="105.30431" xlink:href="#m7ea9280cf6" y="273.312"/>
      </g>
     </g>
     <g id="text_1">
      <!-- $\mathdefault{10^{-1}}$ -->
      <defs>
       <path d="M 12.40625 8.296875 
L 28.515625 8.296875 
L 28.515625 63.921875 
L 10.984375 60.40625 
L 10.984375 69.390625 
L 28.421875 72.90625 
L 38.28125 72.90625 
L 38.28125 8.296875 
L 54.390625 8.296875 
L 54.390625 0 
L 12.40625 0 
z
" id="DejaVuSans-49"/>
       <path d="M 31.78125 66.40625 
Q 24.171875 66.40625 20.328125 58.90625 
Q 16.5 51.421875 16.5 36.375 
Q 16.5 21.390625 20.328125 13.890625 
Q 24.171875 6.390625 31.78125 6.390625 
Q 39.453125 6.390625 43.28125 13.890625 
Q 47.125 21.390625 47.125 36.375 
Q 47.125 51.421875 43.28125 58.90625 
Q 39.453125 66.40625 31.78125 66.40625 
z
M 31.78125 74.21875 
Q 44.046875 74.21875 50.515625 64.515625 
Q 56.984375 54.828125 56.984375 36.375 
Q 56.984375 17.96875 50.515625 8.265625 
Q 44.046875 -1.421875 31.78125 -1.421875 
Q 19.53125 -1.421875 13.0625 8.265625 
Q 6.59375 17.96875 6.59375 36.375 
Q 6.59375 54.828125 13.0625 64.515625 
Q 19.53125 74.21875 31.78125 74.21875 
z
" id="DejaVuSans-48"/>
       <path d="M 10.59375 35.5 
L 73.1875 35.5 
L 73.1875 27.203125 
L 10.59375 27.203125 
z
" id="DejaVuSans-8722"/>
      </defs>
      <g transform="translate(93.55431 287.910437)scale(0.1 -0.1)">
       <use transform="translate(0 0.684375)" xlink:href="#DejaVuSans-49"/>
       <use transform="translate(63.623047 0.684375)" xlink:href="#DejaVuSans-48"/>
       <use transform="translate(128.203125 38.965625)scale(0.7)" xlink:href="#DejaVuSans-8722"/>
       <use transform="translate(186.855469 38.965625)scale(0.7)" xlink:href="#DejaVuSans-49"/>
      </g>
     </g>
    </g>
    <g id="xtick_2">
     <g id="line2d_2">
      <g>
       <use style="stroke:#000000;stroke-width:0.8;" x="201.547713" xlink:href="#m7ea9280cf6" y="273.312"/>
      </g>
     </g>
     <g id="text_2">
      <!-- $\mathdefault{10^{0}}$ -->
      <g transform="translate(192.747713 287.910437)scale(0.1 -0.1)">
       <use transform="translate(0 0.765625)" xlink:href="#DejaVuSans-49"/>
       <use transform="translate(63.623047 0.765625)" xlink:href="#DejaVuSans-48"/>
       <use transform="translate(128.203125 39.046875)scale(0.7)" xlink:href="#DejaVuSans-48"/>
      </g>
     </g>
    </g>
    <g id="xtick_3">
     <g id="line2d_3">
      <g>
       <use style="stroke:#000000;stroke-width:0.8;" x="297.791115" xlink:href="#m7ea9280cf6" y="273.312"/>
      </g>
     </g>
     <g id="text_3">
      <!-- $\mathdefault{10^{1}}$ -->
      <g transform="translate(288.991115 287.910437)scale(0.1 -0.1)">
       <use transform="translate(0 0.684375)" xlink:href="#DejaVuSans-49"/>
       <use transform="translate(63.623047 0.684375)" xlink:href="#DejaVuSans-48"/>
       <use transform="translate(128.203125 38.965625)scale(0.7)" xlink:href="#DejaVuSans-49"/>
      </g>
     </g>
    </g>
    <g id="xtick_4">
     <g id="line2d_4">
      <g>
       <use style="stroke:#000000;stroke-width:0.8;" x="394.034517" xlink:href="#m7ea9280cf6" y="273.312"/>
      </g>
     </g>
     <g id="text_4">
      <!-- $\mathdefault{10^{2}}$ -->
      <defs>
       <path d="M 19.1875 8.296875 
L 53.609375 8.296875 
L 53.609375 0 
L 7.328125 0 
L 7.328125 8.296875 
Q 12.9375 14.109375 22.625 23.890625 
Q 32.328125 33.6875 34.8125 36.53125 
Q 39.546875 41.84375 41.421875 45.53125 
Q 43.3125 49.21875 43.3125 52.78125 
Q 43.3125 58.59375 39.234375 62.25 
Q 35.15625 65.921875 28.609375 65.921875 
Q 23.96875 65.921875 18.8125 64.3125 
Q 13.671875 62.703125 7.8125 59.421875 
L 7.8125 69.390625 
Q 13.765625 71.78125 18.9375 73 
Q 24.125 74.21875 28.421875 74.21875 
Q 39.75 74.21875 46.484375 68.546875 
Q 53.21875 62.890625 53.21875 53.421875 
Q 53.21875 48.921875 51.53125 44.890625 
Q 49.859375 40.875 45.40625 35.40625 
Q 44.1875 33.984375 37.640625 27.21875 
Q 31.109375 20.453125 19.1875 8.296875 
z
" id="DejaVuSans-50"/>
      </defs>
      <g transform="translate(385.234517 287.910437)scale(0.1 -0.1)">
       <use transform="translate(0 0.765625)" xlink:href="#DejaVuSans-49"/>
       <use transform="translate(63.623047 0.765625)" xlink:href="#DejaVuSans-48"/>
       <use transform="translate(128.203125 39.046875)scale(0.7)" xlink:href="#DejaVuSans-50"/>
      </g>
     </g>
    </g>
    <g id="xtick_5">
     <g id="line2d_5">
      <defs>
       <path d="M 0 0 
L 0 2 
" id="mb71322651c" style="stroke:#000000;stroke-width:0.6;"/>
      </defs>
      <g>
       <use style="stroke:#000000;stroke-width:0.6;" x="54.980681" xlink:href="#mb71322651c" y="273.312"/>
      </g>
     </g>
    </g>
    <g id="xtick_6">
     <g id="line2d_6">
      <g>
       <use style="stroke:#000000;stroke-width:0.6;" x="67.00521" xlink:href="#mb71322651c" y="273.312"/>
      </g>
     </g>
    </g>
    <g id="xtick_7">
     <g id="line2d_7">
      <g>
       <use style="stroke:#000000;stroke-width:0.6;" x="76.33216" xlink:href="#mb71322651c" y="273.312"/>
      </g>
     </g>
    </g>
    <g id="xtick_8">
     <g id="line2d_8">
      <g>
       <use style="stroke:#000000;stroke-width:0.6;" x="83.952832" xlink:href="#mb71322651c" y="273.312"/>
      </g>
     </g>
    </g>
    <g id="xtick_9">
     <g id="line2d_9">
      <g>
       <use style="stroke:#000000;stroke-width:0.6;" x="90.396019" xlink:href="#mb71322651c" y="273.312"/>
      </g>
     </g>
    </g>
    <g id="xtick_10">
     <g id="line2d_10">
      <g>
       <use style="stroke:#000000;stroke-width:0.6;" x="95.977361" xlink:href="#mb71322651c" y="273.312"/>
      </g>
     </g>
    </g>
    <g id="xtick_11">
     <g id="line2d_11">
      <g>
       <use style="stroke:#000000;stroke-width:0.6;" x="100.900454" xlink:href="#mb71322651c" y="273.312"/>
      </g>
     </g>
    </g>
    <g id="xtick_12">
     <g id="line2d_12">
      <g>
       <use style="stroke:#000000;stroke-width:0.6;" x="134.276461" xlink:href="#mb71322651c" y="273.312"/>
      </g>
     </g>
    </g>
    <g id="xtick_13">
     <g id="line2d_13">
      <g>
       <use style="stroke:#000000;stroke-width:0.6;" x="151.224083" xlink:href="#mb71322651c" y="273.312"/>
      </g>
     </g>
    </g>
    <g id="xtick_14">
     <g id="line2d_14">
      <g>
       <use style="stroke:#000000;stroke-width:0.6;" x="163.248612" xlink:href="#mb71322651c" y="273.312"/>
      </g>
     </g>
    </g>
    <g id="xtick_15">
     <g id="line2d_15">
      <g>
       <use style="stroke:#000000;stroke-width:0.6;" x="172.575562" xlink:href="#mb71322651c" y="273.312"/>
      </g>
     </g>
    </g>
    <g id="xtick_16">
     <g id="line2d_16">
      <g>
       <use style="stroke:#000000;stroke-width:0.6;" x="180.196234" xlink:href="#mb71322651c" y="273.312"/>
      </g>
     </g>
    </g>
    <g id="xtick_17">
     <g id="line2d_17">
      <g>
       <use style="stroke:#000000;stroke-width:0.6;" x="186.639421" xlink:href="#mb71322651c" y="273.312"/>
      </g>
     </g>
    </g>
    <g id="xtick_18">
     <g id="line2d_18">
      <g>
       <use style="stroke:#000000;stroke-width:0.6;" x="192.220763" xlink:href="#mb71322651c" y="273.312"/>
      </g>
     </g>
    </g>
    <g id="xtick_19">
     <g id="line2d_19">
      <g>
       <use style="stroke:#000000;stroke-width:0.6;" x="197.143856" xlink:href="#mb71322651c" y="273.312"/>
      </g>
     </g>
    </g>
    <g id="xtick_20">
     <g id="line2d_20">
      <g>
       <use style="stroke:#000000;stroke-width:0.6;" x="230.519864" xlink:href="#mb71322651c" y="273.312"/>
      </g>
     </g>
    </g>
    <g id="xtick_21">
     <g id="line2d_21">
      <g>
       <use style="stroke:#000000;stroke-width:0.6;" x="247.467485" xlink:href="#mb71322651c" y="273.312"/>
      </g>
     </g>
    </g>
    <g id="xtick_22">
     <g id="line2d_22">
      <g>
       <use style="stroke:#000000;stroke-width:0.6;" x="259.492015" xlink:href="#mb71322651c" y="273.312"/>
      </g>
     </g>
    </g>
    <g id="xtick_23">
     <g id="line2d_23">
      <g>
       <use style="stroke:#000000;stroke-width:0.6;" x="268.818964" xlink:href="#mb71322651c" y="273.312"/>
      </g>
     </g>
    </g>
    <g id="xtick_24">
     <g id="line2d_24">
      <g>
       <use style="stroke:#000000;stroke-width:0.6;" x="276.439636" xlink:href="#mb71322651c" y="273.312"/>
      </g>
     </g>
    </g>
    <g id="xtick_25">
     <g id="line2d_25">
      <g>
       <use style="stroke:#000000;stroke-width:0.6;" x="282.882823" xlink:href="#mb71322651c" y="273.312"/>
      </g>
     </g>
    </g>
    <g id="xtick_26">
     <g id="line2d_26">
      <g>
       <use style="stroke:#000000;stroke-width:0.6;" x="288.464165" xlink:href="#mb71322651c" y="273.312"/>
      </g>
     </g>
    </g>
    <g id="xtick_27">
     <g id="line2d_27">
      <g>
       <use style="stroke:#000000;stroke-width:0.6;" x="293.387258" xlink:href="#mb71322651c" y="273.312"/>
      </g>
     </g>
    </g>
    <g id="xtick_28">
     <g id="line2d_28">
      <g>
       <use style="stroke:#000000;stroke-width:0.6;" x="326.763266" xlink:href="#mb71322651c" y="273.312"/>
      </g>
     </g>
    </g>
    <g id="xtick_29">
     <g id="line2d_29">
      <g>
       <use style="stroke:#000000;stroke-width:0.6;" x="343.710888" xlink:href="#mb71322651c" y="273.312"/>
      </g>
     </g>
    </g>
    <g id="xtick_30">
     <g id="line2d_30">
      <g>
       <use style="stroke:#000000;stroke-width:0.6;" x="355.735417" xlink:href="#mb71322651c" y="273.312"/>
      </g>
     </g>
    </g>
    <g id="xtick_31">
     <g id="line2d_31">
      <g>
       <use style="stroke:#000000;stroke-width:0.6;" x="365.062366" xlink:href="#mb71322651c" y="273.312"/>
      </g>
     </g>
    </g>
    <g id="xtick_32">
     <g id="line2d_32">
      <g>
       <use style="stroke:#000000;stroke-width:0.6;" x="372.683039" xlink:href="#mb71322651c" y="273.312"/>
      </g>
     </g>
    </g>
    <g id="xtick_33">
     <g id="line2d_33">
      <g>
       <use style="stroke:#000000;stroke-width:0.6;" x="379.126225" xlink:href="#mb71322651c" y="273.312"/>
      </g>
     </g>
    </g>
    <g id="xtick_34">
     <g id="line2d_34">
      <g>
       <use style="stroke:#000000;stroke-width:0.6;" x="384.707568" xlink:href="#mb71322651c" y="273.312"/>
      </g>
     </g>
    </g>
    <g id="xtick_35">
     <g id="line2d_35">
      <g>
       <use style="stroke:#000000;stroke-width:0.6;" x="389.63066" xlink:href="#mb71322651c" y="273.312"/>
      </g>
     </g>
    </g>
    <g id="text_5">
     <!-- $\beta \gamma$  -->
     <defs>
      <path d="M 13.625 3.375 
L 8.9375 -20.796875 
L -0.09375 -20.796875 
L 14.5 54.34375 
Q 18.84375 76.609375 39.65625 76.609375 
Q 60.75 76.609375 57.171875 57.8125 
Q 54.734375 44.4375 45.21875 39.546875 
Q 58.015625 35.15625 55.515625 22.125 
Q 51.125 -1.078125 27.484375 -1.03125 
Q 17.140625 -0.984375 13.625 3.375 
z
M 15.921875 15.09375 
Q 19.671875 6.59375 29.296875 6.640625 
Q 43.359375 6.640625 46.34375 21.96875 
Q 49.03125 35.75 26.171875 34.671875 
L 27.78125 42.96875 
Q 45.453125 42.671875 48.53125 58.59375 
Q 50.640625 69.34375 39.203125 69.28125 
Q 26.421875 69.28125 23.484375 54.046875 
z
" id="DejaVuSans-Oblique-946"/>
      <path d="M 23.296875 46.09375 
L 28.71875 12.3125 
L 54 54.6875 
L 63.53125 54.6875 
L 30.8125 0 
L 26.765625 -20.796875 
L 17.78125 -20.796875 
L 21.828125 0 
L 15.4375 40.828125 
Q 14.453125 46.96875 9.8125 46.96875 
L 7.421875 46.96875 
L 8.890625 54.6875 
L 12.3125 54.6875 
Q 21.921875 54.6875 23.296875 46.09375 
z
" id="DejaVuSans-Oblique-947"/>
      <path id="DejaVuSans-32"/>
     </defs>
     <g transform="translate(217.445 306.310125)scale(0.16 -0.16)">
      <use transform="translate(0 0.390625)" xlink:href="#DejaVuSans-Oblique-946"/>
      <use transform="translate(63.818359 0.390625)" xlink:href="#DejaVuSans-Oblique-947"/>
      <use transform="translate(122.998047 0.390625)" xlink:href="#DejaVuSans-32"/>
     </g>
    </g>
   </g>
   <g id="matplotlib.axis_2">
    <g id="ytick_1">
     <g id="line2d_36">
      <defs>
       <path d="M 0 0 
L -3.5 0 
" id="m03b02cc7e3" style="stroke:#000000;stroke-width:0.8;"/>
      </defs>
      <g>
       <use style="stroke:#000000;stroke-width:0.8;" x="51.285" xlink:href="#m03b02cc7e3" y="183.272649"/>
      </g>
     </g>
     <g id="text_6">
      <!-- $\mathdefault{10^{1}}$ -->
      <g transform="translate(26.685 187.071868)scale(0.1 -0.1)">
       <use transform="translate(0 0.684375)" xlink:href="#DejaVuSans-49"/>
       <use transform="translate(63.623047 0.684375)" xlink:href="#DejaVuSans-48"/>
       <use transform="translate(128.203125 38.965625)scale(0.7)" xlink:href="#DejaVuSans-49"/>
      </g>
     </g>
    </g>
    <g id="ytick_2">
     <g id="line2d_37">
      <g>
       <use style="stroke:#000000;stroke-width:0.8;" x="51.285" xlink:href="#m03b02cc7e3" y="70.802351"/>
      </g>
     </g>
     <g id="text_7">
      <!-- $\mathdefault{10^{2}}$ -->
      <g transform="translate(26.685 74.60157)scale(0.1 -0.1)">
       <use transform="translate(0 0.765625)" xlink:href="#DejaVuSans-49"/>
       <use transform="translate(63.623047 0.765625)" xlink:href="#DejaVuSans-48"/>
       <use transform="translate(128.203125 39.046875)scale(0.7)" xlink:href="#DejaVuSans-50"/>
      </g>
     </g>
    </g>
    <g id="ytick_3">
     <g id="line2d_38">
      <defs>
       <path d="M 0 0 
L -2 0 
" id="m732d7a91aa" style="stroke:#000000;stroke-width:0.6;"/>
      </defs>
      <g>
       <use style="stroke:#000000;stroke-width:0.6;" x="51.285" xlink:href="#m732d7a91aa" y="261.886014"/>
      </g>
     </g>
    </g>
    <g id="ytick_4">
     <g id="line2d_39">
      <g>
       <use style="stroke:#000000;stroke-width:0.6;" x="51.285" xlink:href="#m732d7a91aa" y="242.080978"/>
      </g>
     </g>
    </g>
    <g id="ytick_5">
     <g id="line2d_40">
      <g>
       <use style="stroke:#000000;stroke-width:0.6;" x="51.285" xlink:href="#m732d7a91aa" y="228.029081"/>
      </g>
     </g>
    </g>
    <g id="ytick_6">
     <g id="line2d_41">
      <g>
       <use style="stroke:#000000;stroke-width:0.6;" x="51.285" xlink:href="#m732d7a91aa" y="217.129583"/>
      </g>
     </g>
    </g>
    <g id="ytick_7">
     <g id="line2d_42">
      <g>
       <use style="stroke:#000000;stroke-width:0.6;" x="51.285" xlink:href="#m732d7a91aa" y="208.224044"/>
      </g>
     </g>
    </g>
    <g id="ytick_8">
     <g id="line2d_43">
      <g>
       <use style="stroke:#000000;stroke-width:0.6;" x="51.285" xlink:href="#m732d7a91aa" y="200.694519"/>
      </g>
     </g>
    </g>
    <g id="ytick_9">
     <g id="line2d_44">
      <g>
       <use style="stroke:#000000;stroke-width:0.6;" x="51.285" xlink:href="#m732d7a91aa" y="194.172147"/>
      </g>
     </g>
    </g>
    <g id="ytick_10">
     <g id="line2d_45">
      <g>
       <use style="stroke:#000000;stroke-width:0.6;" x="51.285" xlink:href="#m732d7a91aa" y="188.419008"/>
      </g>
     </g>
    </g>
    <g id="ytick_11">
     <g id="line2d_46">
      <g>
       <use style="stroke:#000000;stroke-width:0.6;" x="51.285" xlink:href="#m732d7a91aa" y="149.415716"/>
      </g>
     </g>
    </g>
    <g id="ytick_12">
     <g id="line2d_47">
      <g>
       <use style="stroke:#000000;stroke-width:0.6;" x="51.285" xlink:href="#m732d7a91aa" y="129.610679"/>
      </g>
     </g>
    </g>
    <g id="ytick_13">
     <g id="line2d_48">
      <g>
       <use style="stroke:#000000;stroke-width:0.6;" x="51.285" xlink:href="#m732d7a91aa" y="115.558782"/>
      </g>
     </g>
    </g>
    <g id="ytick_14">
     <g id="line2d_49">
      <g>
       <use style="stroke:#000000;stroke-width:0.6;" x="51.285" xlink:href="#m732d7a91aa" y="104.659284"/>
      </g>
     </g>
    </g>
    <g id="ytick_15">
     <g id="line2d_50">
      <g>
       <use style="stroke:#000000;stroke-width:0.6;" x="51.285" xlink:href="#m732d7a91aa" y="95.753746"/>
      </g>
     </g>
    </g>
    <g id="ytick_16">
     <g id="line2d_51">
      <g>
       <use style="stroke:#000000;stroke-width:0.6;" x="51.285" xlink:href="#m732d7a91aa" y="88.224221"/>
      </g>
     </g>
    </g>
    <g id="ytick_17">
     <g id="line2d_52">
      <g>
       <use style="stroke:#000000;stroke-width:0.6;" x="51.285" xlink:href="#m732d7a91aa" y="81.701849"/>
      </g>
     </g>
    </g>
    <g id="ytick_18">
     <g id="line2d_53">
      <g>
       <use style="stroke:#000000;stroke-width:0.6;" x="51.285" xlink:href="#m732d7a91aa" y="75.94871"/>
      </g>
     </g>
    </g>
    <g id="ytick_19">
     <g id="line2d_54">
      <g>
       <use style="stroke:#000000;stroke-width:0.6;" x="51.285" xlink:href="#m732d7a91aa" y="36.945418"/>
      </g>
     </g>
    </g>
    <g id="ytick_20">
     <g id="line2d_55">
      <g>
       <use style="stroke:#000000;stroke-width:0.6;" x="51.285" xlink:href="#m732d7a91aa" y="17.140381"/>
      </g>
     </g>
    </g>
    <g id="text_8">
     <!-- dE/dx [MeV/cm ]  -->
     <defs>
      <path d="M 45.40625 46.390625 
L 45.40625 75.984375 
L 54.390625 75.984375 
L 54.390625 0 
L 45.40625 0 
L 45.40625 8.203125 
Q 42.578125 3.328125 38.25 0.953125 
Q 33.9375 -1.421875 27.875 -1.421875 
Q 17.96875 -1.421875 11.734375 6.484375 
Q 5.515625 14.40625 5.515625 27.296875 
Q 5.515625 40.1875 11.734375 48.09375 
Q 17.96875 56 27.875 56 
Q 33.9375 56 38.25 53.625 
Q 42.578125 51.265625 45.40625 46.390625 
z
M 14.796875 27.296875 
Q 14.796875 17.390625 18.875 11.75 
Q 22.953125 6.109375 30.078125 6.109375 
Q 37.203125 6.109375 41.296875 11.75 
Q 45.40625 17.390625 45.40625 27.296875 
Q 45.40625 37.203125 41.296875 42.84375 
Q 37.203125 48.484375 30.078125 48.484375 
Q 22.953125 48.484375 18.875 42.84375 
Q 14.796875 37.203125 14.796875 27.296875 
z
" id="DejaVuSans-100"/>
      <path d="M 9.8125 72.90625 
L 55.90625 72.90625 
L 55.90625 64.59375 
L 19.671875 64.59375 
L 19.671875 43.015625 
L 54.390625 43.015625 
L 54.390625 34.71875 
L 19.671875 34.71875 
L 19.671875 8.296875 
L 56.78125 8.296875 
L 56.78125 0 
L 9.8125 0 
z
" id="DejaVuSans-69"/>
      <path d="M 25.390625 72.90625 
L 33.6875 72.90625 
L 8.296875 -9.28125 
L 0 -9.28125 
z
" id="DejaVuSans-47"/>
      <path d="M 54.890625 54.6875 
L 35.109375 28.078125 
L 55.90625 0 
L 45.3125 0 
L 29.390625 21.484375 
L 13.484375 0 
L 2.875 0 
L 24.125 28.609375 
L 4.6875 54.6875 
L 15.28125 54.6875 
L 29.78125 35.203125 
L 44.28125 54.6875 
z
" id="DejaVuSans-120"/>
      <path d="M 8.59375 75.984375 
L 29.296875 75.984375 
L 29.296875 69 
L 17.578125 69 
L 17.578125 -6.203125 
L 29.296875 -6.203125 
L 29.296875 -13.1875 
L 8.59375 -13.1875 
z
" id="DejaVuSans-91"/>
      <path d="M 9.8125 72.90625 
L 24.515625 72.90625 
L 43.109375 23.296875 
L 61.8125 72.90625 
L 76.515625 72.90625 
L 76.515625 0 
L 66.890625 0 
L 66.890625 64.015625 
L 48.09375 14.015625 
L 38.1875 14.015625 
L 19.390625 64.015625 
L 19.390625 0 
L 9.8125 0 
z
" id="DejaVuSans-77"/>
      <path d="M 56.203125 29.59375 
L 56.203125 25.203125 
L 14.890625 25.203125 
Q 15.484375 15.921875 20.484375 11.0625 
Q 25.484375 6.203125 34.421875 6.203125 
Q 39.59375 6.203125 44.453125 7.46875 
Q 49.3125 8.734375 54.109375 11.28125 
L 54.109375 2.78125 
Q 49.265625 0.734375 44.1875 -0.34375 
Q 39.109375 -1.421875 33.890625 -1.421875 
Q 20.796875 -1.421875 13.15625 6.1875 
Q 5.515625 13.8125 5.515625 26.8125 
Q 5.515625 40.234375 12.765625 48.109375 
Q 20.015625 56 32.328125 56 
Q 43.359375 56 49.78125 48.890625 
Q 56.203125 41.796875 56.203125 29.59375 
z
M 47.21875 32.234375 
Q 47.125 39.59375 43.09375 43.984375 
Q 39.0625 48.390625 32.421875 48.390625 
Q 24.90625 48.390625 20.390625 44.140625 
Q 15.875 39.890625 15.1875 32.171875 
z
" id="DejaVuSans-101"/>
      <path d="M 28.609375 0 
L 0.78125 72.90625 
L 11.078125 72.90625 
L 34.1875 11.53125 
L 57.328125 72.90625 
L 67.578125 72.90625 
L 39.796875 0 
z
" id="DejaVuSans-86"/>
      <path d="M 48.78125 52.59375 
L 48.78125 44.1875 
Q 44.96875 46.296875 41.140625 47.34375 
Q 37.3125 48.390625 33.40625 48.390625 
Q 24.65625 48.390625 19.8125 42.84375 
Q 14.984375 37.3125 14.984375 27.296875 
Q 14.984375 17.28125 19.8125 11.734375 
Q 24.65625 6.203125 33.40625 6.203125 
Q 37.3125 6.203125 41.140625 7.25 
Q 44.96875 8.296875 48.78125 10.40625 
L 48.78125 2.09375 
Q 45.015625 0.34375 40.984375 -0.53125 
Q 36.96875 -1.421875 32.421875 -1.421875 
Q 20.0625 -1.421875 12.78125 6.34375 
Q 5.515625 14.109375 5.515625 27.296875 
Q 5.515625 40.671875 12.859375 48.328125 
Q 20.21875 56 33.015625 56 
Q 37.15625 56 41.109375 55.140625 
Q 45.0625 54.296875 48.78125 52.59375 
z
" id="DejaVuSans-99"/>
      <path d="M 52 44.1875 
Q 55.375 50.25 60.0625 53.125 
Q 64.75 56 71.09375 56 
Q 79.640625 56 84.28125 50.015625 
Q 88.921875 44.046875 88.921875 33.015625 
L 88.921875 0 
L 79.890625 0 
L 79.890625 32.71875 
Q 79.890625 40.578125 77.09375 44.375 
Q 74.3125 48.1875 68.609375 48.1875 
Q 61.625 48.1875 57.5625 43.546875 
Q 53.515625 38.921875 53.515625 30.90625 
L 53.515625 0 
L 44.484375 0 
L 44.484375 32.71875 
Q 44.484375 40.625 41.703125 44.40625 
Q 38.921875 48.1875 33.109375 48.1875 
Q 26.21875 48.1875 22.15625 43.53125 
Q 18.109375 38.875 18.109375 30.90625 
L 18.109375 0 
L 9.078125 0 
L 9.078125 54.6875 
L 18.109375 54.6875 
L 18.109375 46.1875 
Q 21.1875 51.21875 25.484375 53.609375 
Q 29.78125 56 35.6875 56 
Q 41.65625 56 45.828125 52.96875 
Q 50 49.953125 52 44.1875 
z
" id="DejaVuSans-109"/>
      <path d="M 30.421875 75.984375 
L 30.421875 -13.1875 
L 9.71875 -13.1875 
L 9.71875 -6.203125 
L 21.390625 -6.203125 
L 21.390625 69 
L 9.71875 69 
L 9.71875 75.984375 
z
" id="DejaVuSans-93"/>
     </defs>
     <g transform="translate(19.3575 208.95225)rotate(-90)scale(0.16 -0.16)">
      <use xlink:href="#DejaVuSans-100"/>
      <use x="63.476562" xlink:href="#DejaVuSans-69"/>
      <use x="126.660156" xlink:href="#DejaVuSans-47"/>
      <use x="160.351562" xlink:href="#DejaVuSans-100"/>
      <use x="223.828125" xlink:href="#DejaVuSans-120"/>
      <use x="283.007812" xlink:href="#DejaVuSans-32"/>
      <use x="314.794922" xlink:href="#DejaVuSans-91"/>
      <use x="353.808594" xlink:href="#DejaVuSans-77"/>
      <use x="440.087891" xlink:href="#DejaVuSans-101"/>
      <use x="501.611328" xlink:href="#DejaVuSans-86"/>
      <use x="570.019531" xlink:href="#DejaVuSans-47"/>
      <use x="603.710938" xlink:href="#DejaVuSans-99"/>
      <use x="658.691406" xlink:href="#DejaVuSans-109"/>
      <use x="756.103516" xlink:href="#DejaVuSans-32"/>
      <use x="787.890625" xlink:href="#DejaVuSans-93"/>
      <use x="826.904297" xlink:href="#DejaVuSans-32"/>
     </g>
    </g>
   </g>
   <g id="patch_3">
    <path d="M 51.285 273.312 
L 51.285 7.2 
" style="fill:none;stroke:#000000;stroke-linecap:square;stroke-linejoin:miter;stroke-width:0.8;"/>
   </g>
   <g id="patch_4">
    <path d="M 408.405 273.312 
L 408.405 7.2 
" style="fill:none;stroke:#000000;stroke-linecap:square;stroke-linejoin:miter;stroke-width:0.8;"/>
   </g>
   <g id="patch_5">
    <path d="M 51.285 273.312 
L 408.405 273.312 
" style="fill:none;stroke:#000000;stroke-linecap:square;stroke-linejoin:miter;stroke-width:0.8;"/>
   </g>
   <g id="patch_6">
    <path d="M 51.285 7.2 
L 408.405 7.2 
" style="fill:none;stroke:#000000;stroke-linecap:square;stroke-linejoin:miter;stroke-width:0.8;"/>
   </g>
  </g>
 </g>
 <defs>
  <clipPath id="p5b25d5cef8">
   <rect height="266.112" width="357.12" x="51.285" y="7.2"/>
  </clipPath>
 </defs>
</svg>
